Coordinates
version=1
nRows=19
nColumns=36
inDegrees=yes

Units are S.I. units (second, meters, Newtons, ...)
If the header above contains a line with 'inDegrees', this indicates whether rotational values are in degrees (yes) or radians (no).

endheader
time	pelvis_tilt	pelvis_list	pelvis_rotation	pelvis_tx	pelvis_ty	pelvis_tz	hip_flexion_r	hip_adduction_r	hip_rotation_r	knee_angle_r	knee_angle_r_beta	ankle_angle_r	subtalar_angle_r	mtp_angle_r	hip_flexion_l	hip_adduction_l	hip_rotation_l	knee_angle_l	knee_angle_l_beta	ankle_angle_l	subtalar_angle_l	mtp_angle_l	lumbar_extension	lumbar_bending	lumbar_rotation	arm_flex_r	arm_add_r	arm_rot_r	elbow_flex_r	pro_sup_r	arm_flex_l	arm_add_l	arm_rot_l	elbow_flex_l	pro_sup_l
      1.04000000	    -13.20598951	      1.17792321	      3.75073709	     -0.34673622	      0.70794336	     -0.56863925	     73.41970895	     -8.45767268	      4.87506168	     89.26335205	      1.55793939	     30.78130127	     -5.69993587	     -7.34851446	     70.58770182	     -2.13958174	      3.73974653	     87.63580970	      1.52953342	     28.51190050	    -11.54471764	     -7.34851446	    -32.01915482	     -5.81902997	     -4.35354733	     40.01129616	     -4.35411938	     12.67242536	    101.14252750	    102.38042073	     45.56906222	    -12.33510922	     20.29965867	    106.87623730	    112.96129554
      1.05000000	    -14.00293919	      0.94564186	      3.50623417	     -0.34781780	      0.70429877	     -0.56830818	     74.61424732	     -8.14443173	      4.86215526	     89.54671225	      1.56288496	     30.81072048	     -5.48380402	     -7.34980252	     71.79874094	     -2.44716112	      3.90327879	     88.08058160	      1.53729616	     28.72831439	    -11.58540188	     -7.34980252	    -32.46815620	     -5.51416275	     -4.07720715	     45.06844223	     -3.68765030	     13.08081467	     98.85981278	    102.33362485	     50.16341124	    -12.03832387	     21.87606302	    105.02572212	    112.90279909
      1.06000000	    -14.85486011	      0.76475306	      3.28828585	     -0.34902840	      0.70158697	     -0.56805241	     75.73187373	     -7.89959845	      4.82181360	     89.58745675	      1.56359609	     30.89683996	     -5.27499571	     -7.35212307	     73.00286747	     -2.71732593	      4.00601004	     88.33693621	      1.54177039	     28.82797358	    -11.38644684	     -7.35212307	    -32.89828517	     -5.34308927	     -3.77902431	     49.74760665	     -3.10950001	     13.04707046	     96.77469985	    102.34951395	     54.81907085	    -11.68757252	     23.28132771	    102.76838702	    112.76152704
      1.07000000	    -15.76749266	      0.68503926	      3.13920188	     -0.35020888	      0.69966663	     -0.56827257	     76.83447773	     -7.82107322	      4.80722348	     89.49817301	      1.56203779	     30.85315420	     -5.09470282	     -7.35366838	     74.15498713	     -2.83526656	      3.99432508	     88.42851425	      1.54336873	     28.80647654	    -11.29413302	     -7.35366838	    -33.23749105	     -5.15535946	     -3.61515609	     54.15587751	     -2.48419385	     12.75156701	     94.72887301	    102.27461702	     59.09572359	    -11.15841402	     24.04162725	    100.39497383	    112.56265580
      1.08000000	    -16.76263373	      0.64034007	      3.10081714	     -0.35141856	      0.69839127	     -0.56861351	     77.94192358	     -7.86251974	      4.78408281	     89.29558508	      1.55850197	     30.73523844	     -4.95482100	     -7.35501477	     75.28141474	     -2.78983024	      3.99114809	     88.32045837	      1.54148280	     28.72711371	    -11.25448759	     -7.35501477	    -33.54033652	     -4.95083269	     -3.55516054	     58.27614423	     -1.88196608	     12.33464568	     93.05731790	    102.17694857	     63.20103511	    -10.58083922	     24.51039184	     98.03302404	    112.34154642
      1.09000000	    -17.87066729	      0.51032464	      2.97595853	     -0.35266207	      0.69752841	     -0.56826959	     79.10129826	     -7.72758915	      4.65745286	     88.95649822	      1.55258378	     30.51261864	     -4.83063873	     -7.35635645	     76.45558995	     -2.93118626	      4.04575740	     88.07895588	      1.53726778	     28.60063583	    -11.22765444	     -7.35635645	    -33.72812137	     -4.77860614	     -3.36322600	     62.10041194	     -1.35032486	     11.88837262	     91.83667143	    102.07180919	     67.17375836	    -10.05309400	     24.92700804	     95.84106972	    112.13203375
      1.10000000	    -19.05258534	      0.32219470	      2.72358314	     -0.35376830	      0.69708589	     -0.56722698	     80.25112599	     -7.36732642	      4.52348025	     88.49656907	      1.54455651	     30.25082282	     -4.73877784	     -7.35749800	     77.62444556	     -3.31716552	      4.11262282	     87.73055621	      1.53118706	     28.50223328	    -11.18422359	     -7.35749800	    -33.84057187	     -4.67823035	     -3.06533698	     65.64568405	     -0.91585682	     11.52947509	     91.13354854	    101.98078472	     70.91806044	     -9.54427175	     25.12286247	     94.05731056	    111.95807747
      1.11000000	    -20.12662339	      0.28614165	      2.51935280	     -0.35483990	      0.69750861	     -0.56632253	     81.23286660	     -7.13354628	      4.43653592	     87.95805790	      1.53515771	     29.81088912	     -4.95861647	     -7.36087866	     78.50584992	     -3.54175889	      4.05960993	     87.17659970	      1.52151870	     28.34927409	    -11.23968102	     -7.36087866	    -34.09689167	     -4.72708490	     -2.61654156	     68.98637175	     -0.93481765	     11.17078726	     91.05357310	    101.85696665	     74.76109911	     -8.74530058	     25.58681307	     91.97312241	    111.79931038
      1.12000000	    -21.19410766	      0.31875641	      2.47926012	     -0.35592631	      0.69856650	     -0.56605120	     82.10114276	     -7.12555671	      4.42297628	     87.29958419	      1.52366518	     29.50720810	     -4.78812130	     -7.36208866	     79.27922151	     -3.52934828	      3.97139559	     86.45429781	      1.50891215	     28.23046752	    -11.24090425	     -7.36208866	    -34.33851867	     -4.54952647	     -2.64091830	     72.38372898	     -0.62758015	     11.25058460	     90.62806292	    101.76537046	     78.00438211	     -8.27088901	     25.33440444	     90.73202243	    111.67727746
      1.13000000	    -22.15893286	      0.42309666	      2.45564975	     -0.35698641	      0.70010707	     -0.56573221	     82.84138144	     -7.17251823	      4.42634459	     86.61721563	      1.51175560	     29.17416599	     -4.65449645	     -7.36363762	     79.89739497	     -3.52779455	      3.77259884	     85.67209709	      1.49526017	     27.95838601	    -11.30625403	     -7.36363762	    -34.67064727	     -4.45842231	     -2.66007956	     75.68645794	     -0.46492212	     11.50757111	     90.38000126	    101.63271223	     81.21523371	     -7.85220824	     25.37628090	     89.60889984	    111.59871425
      1.14000000	    -23.16709896	      0.52877285	      2.40215646	     -0.35786267	      0.70178887	     -0.56520610	     83.56128775	     -7.16467358	      4.43916599	     85.86114501	      1.49855968	     28.93812281	     -4.54330343	     -7.36486476	     80.52653676	     -3.61436463	      3.54686077	     84.85362638	      1.48097516	     27.64454599	    -11.25983899	     -7.36486476	    -34.86334905	     -4.40796820	     -2.71237624	     78.70348833	     -0.21322904	     11.77992786	     90.25394967	    101.50414425	     84.10772570	     -7.44434009	     25.30933456	     88.76979835	    111.52681727
      1.15000000	    -24.09789692	      0.73961020	      2.42508170	     -0.35846574	      0.70361982	     -0.56489947	     84.19963608	     -7.28814859	      4.54065639	     85.15568056	      1.48624700	     28.77926830	     -4.54491123	     -7.36696402	     81.02574494	     -3.57076569	      3.22647170	     84.01745590	      1.46638123	     27.26223857	    -11.36201080	     -7.36696402	    -35.04917209	     -4.42856466	     -2.85091502	     81.47640942	     -0.03297170	     12.02068924	     90.22864150	    101.26594294	     86.78268626	     -6.97387315	     25.28758235	     88.01955573	    111.46159026
      1.16000000	    -25.06201070	      1.02001832	      2.50223618	     -0.35885560	      0.70568250	     -0.56474894	     84.81818060	     -7.50478384	      4.65964346	     84.38792713	      1.47284718	     28.65946827	     -4.48753591	     -7.36838771	     81.45347451	     -3.40556967	      2.86817297	     83.07500936	      1.44993244	     26.94476338	    -11.36443631	     -7.36838771	    -35.12464497	     -4.43555345	     -3.09352745	     84.01508066	      0.25649520	     12.27731687	     90.20588670	    101.09720208	     89.12235209	     -6.50523975	     25.11167382	     87.46759100	    111.39689925
      1.17000000	    -26.01506357	      1.27807757	      2.47581108	     -0.35898156	      0.70774158	     -0.56434580	     85.42048331	     -7.56879924	      4.77626745	     83.63111596	      1.45963833	     28.48063998	     -4.41521193	     -7.36982921	     81.85809988	     -3.36194307	      2.52407534	     82.17509074	      1.43422590	     26.67025146	    -11.49035940	     -7.36982921	    -35.10039700	     -4.49207724	     -3.25848032	     86.30263831	      0.60739310	     12.49415411	     90.20985355	    100.93420548	     91.22491486	     -6.07139643	     25.00945532	     87.04398974	    111.35936648
      1.18000000	    -26.99386513	      1.44289435	      2.42476737	     -0.35875984	      0.70977886	     -0.56383668	     86.00174292	     -7.54562551	      4.82610458	     82.86587939	      1.44628243	     28.39012490	     -4.33700297	     -7.37050190	     82.29888571	     -3.37146943	      2.32024362	     81.32914851	      1.41946142	     26.56263902	    -11.52988921	     -7.37050190	    -34.93713695	     -4.46256586	     -3.35970942	     88.29911896	      1.07374219	     12.62378242	     90.28993126	    100.87572326	     93.00582609	     -5.60521117	     24.73435272	     86.81071009	    111.32132430
      1.19000000	    -27.72052401	      1.75287171	      2.39631384	     -0.35816441	      0.71221023	     -0.56351167	     86.36389355	     -7.65277816	      4.96938479	     82.19049154	      1.43449469	     28.09421533	     -4.26044557	     -7.37196992	     82.39987829	     -3.31124863	      1.94199175	     80.45053670	      1.40412675	     26.18462160	    -11.73612938	     -7.37196992	    -34.97498230	     -4.50468611	     -3.49249290	     90.27367385	      1.44342881	     12.97870686	     90.18499545	    100.75816614	     94.73492007	     -5.07330453	     24.51385280	     86.28558639	    111.26970897
      1.20000000	    -28.41932803	      2.02318963	      2.35950571	     -0.35715503	      0.71466491	     -0.56310182	     86.63744060	     -7.68075604	      5.15413993	     81.52192047	      1.42282592	     27.96968780	     -4.20529041	     -7.37346518	     82.47138842	     -3.24923296	      1.66819692	     79.61982428	      1.38962808	     25.89243284	    -11.94743545	     -7.37346518	    -34.92273457	     -4.52822303	     -3.56094895	     91.92556127	      1.89231888	     13.11105302	     90.22079452	    100.64201769	     96.14311395	     -4.56722785	     24.25387778	     85.94207646	    111.22025083
      1.21000000	    -29.11369249	      2.16505587	      2.30398729	     -0.35567825	      0.71698559	     -0.56255939	     86.85069939	     -7.61041403	      5.26018019	     80.88453404	      1.41170143	     27.99020336	     -4.14993480	     -7.37377180	     82.59475654	     -3.26191095	      1.52797766	     78.90578632	      1.37716577	     25.86349252	    -11.93704340	     -7.37377180	    -34.68306100	     -4.41978338	     -3.51612420	     93.21964708	      2.44508489	     13.15875137	     90.35208702	    100.62536833	     97.13582506	     -4.15391806	     24.07476644	     85.86096383	    111.19214735
      1.22000000	    -29.34003629	      2.43545747	      2.12870007	     -0.35358920	      0.72019753	     -0.56166842	     86.54133746	     -7.41743450	      5.52922643	     80.22519947	      1.40019387	     27.87443832	     -4.11066194	     -7.37476482	     82.12527674	     -3.31220219	      1.34339593	     78.17313646	      1.36437862	     25.60324904	    -12.06908236	     -7.37476482	    -34.88929913	     -4.50305548	     -3.53905212	     94.47605881	      2.97430241	     13.26415826	     90.20366578	    100.54603392	     98.07900098	     -3.69803327	     23.58698525	     85.67794440	    111.12700816
